<svg width="20" height="21" viewBox="0 0 20 21" fill="none" xmlns="http://www.w3.org/2000/svg">
<path fill-rule="evenodd" clip-rule="evenodd" d="M6.39618 1.70834C6.63731 1.70834 6.83279 1.90382 6.83279 2.14495C6.83279 2.64865 7.03288 3.13173 7.38906 3.4879C7.74523 3.84407 8.2283 4.04417 8.73201 4.04417C8.97314 4.04417 9.16861 4.23964 9.16861 4.48077C9.16861 4.7219 8.97314 4.91738 8.73201 4.91738C8.2283 4.91738 7.74523 5.11747 7.38906 5.47364C7.03288 5.82982 6.83279 6.31289 6.83279 6.8166C6.83279 7.05773 6.63731 7.2532 6.39618 7.2532C6.15505 7.2532 5.95958 7.05773 5.95958 6.8166C5.95958 6.31289 5.75948 5.82982 5.40331 5.47364C5.04714 5.11747 4.56406 4.91738 4.06036 4.91738C3.81923 4.91738 3.62375 4.7219 3.62375 4.48077C3.62375 4.23964 3.81923 4.04417 4.06036 4.04417C4.56406 4.04417 5.04714 3.84407 5.40331 3.4879C5.75948 3.13173 5.95958 2.64865 5.95958 2.14495C5.95958 1.90382 6.15505 1.70834 6.39618 1.70834ZM6.39618 3.63838C6.28911 3.80586 6.16352 3.96259 6.02076 4.10535C5.878 4.24811 5.72127 4.3737 5.55379 4.48077C5.72127 4.58785 5.878 4.71343 6.02076 4.85619C6.16352 4.99896 6.28911 5.15568 6.39618 5.32317C6.50326 5.15568 6.62884 4.99896 6.77161 4.85619C6.91437 4.71343 7.07109 4.58785 7.23858 4.48077C7.07109 4.3737 6.91437 4.24811 6.77161 4.10535C6.62884 3.96259 6.50326 3.80586 6.39618 3.63838ZM4.71528 13.06C4.95641 13.06 5.15188 13.2555 5.15188 13.4966C5.15188 14.1798 5.42327 14.835 5.90636 15.3181C6.38945 15.8012 7.04465 16.0726 7.72784 16.0726C7.96897 16.0726 8.16444 16.2681 8.16444 16.5092C8.16444 16.7503 7.96897 16.9458 7.72784 16.9458C7.04465 16.9458 6.38945 17.2172 5.90636 17.7003C5.42327 18.1834 5.15188 18.8386 5.15188 19.5217C5.15188 19.7629 4.95641 19.9583 4.71528 19.9583C4.47415 19.9583 4.27867 19.7629 4.27867 19.5217C4.27867 18.8386 4.00728 18.1834 3.52419 17.7003C3.04111 17.2172 2.3859 16.9458 1.70272 16.9458C1.46159 16.9458 1.26611 16.7503 1.26611 16.5092C1.26611 16.2681 1.46159 16.0726 1.70272 16.0726C2.3859 16.0726 3.04111 15.8012 3.52419 15.3181C4.00728 14.835 4.27867 14.1798 4.27867 13.4966C4.27867 13.2555 4.47415 13.06 4.71528 13.06ZM4.71528 15.1763C4.56141 15.4523 4.36904 15.7081 4.14164 15.9356C3.91424 16.163 3.65836 16.3553 3.38238 16.5092C3.65836 16.663 3.91424 16.8554 4.14164 17.0828C4.36904 17.3102 4.56141 17.5661 4.71528 17.8421C4.86914 17.5661 5.06151 17.3102 5.28891 17.0828C5.51631 16.8554 5.7722 16.663 6.04818 16.5092C5.7722 16.3553 5.51631 16.163 5.28891 15.9356C5.06151 15.7081 4.86914 15.4523 4.71528 15.1763ZM13.1417 4.76456C13.1417 4.40287 12.8485 4.10966 12.4868 4.10966C12.1251 4.10966 11.8319 4.40287 11.8319 4.76456C11.8319 6.35565 11.2833 7.86599 10.3295 8.96652C9.37825 10.0641 8.1099 10.6587 6.81098 10.6587C6.44928 10.6587 6.15607 10.9519 6.15607 11.3136C6.15607 11.6753 6.44928 11.9685 6.81098 11.9685C8.1099 11.9685 9.37825 12.5631 10.3295 13.6607C11.2833 14.7612 11.8319 16.2716 11.8319 17.8627C11.8319 18.2243 12.1251 18.5176 12.4868 18.5176C12.8485 18.5176 13.1417 18.2243 13.1417 17.8627C13.1417 16.2716 13.6903 14.7612 14.6441 13.6607C15.5954 12.5631 16.8637 11.9685 18.1627 11.9685C18.5243 11.9685 18.8176 11.6753 18.8176 11.3136C18.8176 10.9519 18.5243 10.6587 18.1627 10.6587C16.8637 10.6587 15.5954 10.0641 14.6441 8.96652C13.6903 7.86599 13.1417 6.35565 13.1417 4.76456ZM11.3193 9.82435C11.7992 9.27061 12.1911 8.63925 12.4868 7.95777C12.7825 8.63925 13.1744 9.27061 13.6543 9.82435C14.1954 10.4487 14.8297 10.952 15.5233 11.3136C14.8297 11.6753 14.1954 12.1785 13.6543 12.8029C13.1744 13.3566 12.7825 13.988 12.4868 14.6695C12.1911 13.988 11.7992 13.3566 11.3193 12.8029C10.7782 12.1785 10.1439 11.6753 9.45032 11.3136C10.1439 10.952 10.7782 10.4487 11.3193 9.82435Z" fill="#7047EB"/>
</svg>
